<svg width="400" height="400" viewBox="0 0 400 400" xmlns="http://www.w3.org/2000/svg">
  <rect width="400" height="400" fill="#FFD93D"/>

  <!-- 耳 -->
  <circle cx="126" cy="210" r="14" fill="#F1B183"/>
  <circle cx="274" cy="210" r="14" fill="#F1B183"/>

  <!-- 首 -->
  <rect x="178" y="248" width="44" height="72" fill="#F1B183"/>

  <!-- 顔 -->
  <ellipse cx="200" cy="184" rx="74" ry="78" fill="#FBCBA0"/>

  <!-- 髪(短髪スパイキー) -->
  <path d="M126,182 C126,108 160,80 200,80 C240,80 274,108 274,182
           L266,178 L254,144 L240,166 L224,142 L208,166 L192,142 L176,166 L160,144 L146,178 Z" fill="#26262E"/>

  <!-- 眉 -->
  <rect x="150" y="198" width="32" height="9" rx="4.5" fill="#26262E" transform="rotate(-6 166 202)"/>
  <rect x="218" y="198" width="32" height="9" rx="4.5" fill="#26262E" transform="rotate(6 234 202)"/>

  <!-- 目 -->
  <circle cx="167" cy="224" r="9.5" fill="#26262E"/>
  <circle cx="170" cy="221" r="3" fill="#fff"/>
  <circle cx="233" cy="224" r="9.5" fill="#26262E"/>
  <circle cx="236" cy="221" r="3" fill="#fff"/>

  <!-- ほほ -->
  <circle cx="156" cy="242" r="9" fill="#F7A17A" opacity="0.5"/>
  <circle cx="244" cy="242" r="9" fill="#F7A17A" opacity="0.5"/>

  <!-- 口(にっこり) -->
  <path d="M176,244 Q200,266 224,244" fill="none" stroke="#26262E" stroke-width="8" stroke-linecap="round"/>

  <!-- 体(白Tシャツ) -->
  <path d="M82,402 C82,336 130,304 200,304 C270,304 318,336 318,402 Z" fill="#FFFFFF"/>

  <!-- タオル(サウナ/筋トレの記号) -->
  <rect x="146" y="298" width="34" height="104" rx="8" fill="#22d3ee" transform="rotate(5 163 350)"/>
  <rect x="220" y="298" width="34" height="104" rx="8" fill="#22d3ee" transform="rotate(-5 237 350)"/>
  <path d="M154,306 Q200,272 246,306" fill="none" stroke="#22d3ee" stroke-width="32" stroke-linecap="round"/>
  <rect x="150" y="378" width="26" height="5" rx="2.5" fill="#fff" opacity="0.85" transform="rotate(5 163 350)"/>
  <rect x="224" y="378" width="26" height="5" rx="2.5" fill="#fff" opacity="0.85" transform="rotate(-5 237 350)"/>

  <!-- AIバッジ -->
  <circle cx="306" cy="312" r="42" fill="#f97316" stroke="#fff" stroke-width="5"/>
  <text x="306" y="327" text-anchor="middle" font-family="Arial, sans-serif" font-size="42" font-weight="800" fill="#fff">AI</text>
</svg>
